grf
version=1
nRows=11
nColumns=46
inDegrees=yes
endheader
time	ground_force_1_vx	ground_force_1_vy	ground_force_1_vz	ground_force_1_px	ground_force_1_py	ground_force_1_pz	ground_moment_1_mx	ground_moment_1_my	ground_moment_1_mz	ground_force_2_vx	ground_force_2_vy	ground_force_2_vz	ground_force_2_px	ground_force_2_py	ground_force_2_pz	ground_moment_2_mx	ground_moment_2_my	ground_moment_2_mz	ground_force_3_vx	ground_force_3_vy	ground_force_3_vz	ground_force_3_px	ground_force_3_py	ground_force_3_pz	ground_moment_3_mx	ground_moment_3_my	ground_moment_3_mz	ground_force_4_vx	ground_force_4_vy	ground_force_4_vz	ground_force_4_px	ground_force_4_py	ground_force_4_pz	ground_moment_4_mx	ground_moment_4_my	ground_moment_4_mz	ground_force_5_vx	ground_force_5_vy	ground_force_5_vz	ground_force_5_px	ground_force_5_py	ground_force_5_pz	ground_moment_5_mx	ground_moment_5_my	ground_moment_5_mz
1.728500	0.000000	0.000000	0.000000	0.000000	0.000000	0.000000	0.000000	0.000000	0.000000	0.000000	0.000000	0.000000	0.000000	0.000000	0.000000	0.000000	0.000000	0.000000	0.000000	0.000000	0.000000	0.000000	0.000000	0.000000	0.000000	0.000000	0.000000	7.808412	545.127974	-114.236962	0.169176	0.000000	-0.903873	0.000000	5.251498	0.000000	7.812014	517.141466	111.881848	0.206969	0.000000	-1.576165	0.000000	-4.510593	-0.000000
1.729000	0.000000	0.000000	0.000000	0.000000	0.000000	0.000000	0.000000	0.000000	0.000000	0.000000	0.000000	0.000000	0.000000	0.000000	0.000000	0.000000	0.000000	0.000000	0.000000	0.000000	0.000000	0.000000	0.000000	0.000000	0.000000	0.000000	0.000000	7.714229	544.726151	-114.217048	0.169181	0.000000	-0.903875	0.000000	5.244243	0.000000	7.739189	516.627604	111.828665	0.206947	0.000000	-1.576137	0.000000	-4.506502	-0.000000
1.729500	0.000000	0.000000	0.000000	0.000000	0.000000	0.000000	0.000000	0.000000	0.000000	0.000000	0.000000	0.000000	0.000000	0.000000	0.000000	0.000000	0.000000	0.000000	0.000000	0.000000	0.000000	0.000000	0.000000	0.000000	0.000000	0.000000	0.000000	7.621924	544.325647	-114.196197	0.169184	0.000000	-0.903878	0.000000	5.237078	0.000000	7.663584	516.113931	111.776986	0.206925	0.000000	-1.576109	0.000000	-4.502354	-0.000000
1.730000	0.000000	0.000000	0.000000	0.000000	0.000000	0.000000	0.000000	0.000000	0.000000	0.000000	0.000000	0.000000	0.000000	0.000000	0.000000	0.000000	0.000000	0.000000	0.000000	0.000000	0.000000	0.000000	0.000000	0.000000	0.000000	0.000000	0.000000	7.531533	543.926377	-114.174397	0.169187	0.000000	-0.903881	0.000000	5.230001	0.000000	7.585231	515.600438	111.726755	0.206904	0.000000	-1.576082	0.000000	-4.498147	-0.000000
1.730500	0.000000	0.000000	0.000000	0.000000	0.000000	0.000000	0.000000	0.000000	0.000000	0.000000	0.000000	0.000000	0.000000	0.000000	0.000000	0.000000	0.000000	0.000000	0.000000	0.000000	0.000000	0.000000	0.000000	0.000000	0.000000	0.000000	0.000000	7.443082	543.528259	-114.151635	0.169189	0.000000	-0.903884	0.000000	5.223007	0.000000	7.504166	515.087087	111.677909	0.206884	0.000000	-1.576055	0.000000	-4.493878	-0.000000
1.731000	0.000000	0.000000	0.000000	0.000000	0.000000	0.000000	0.000000	0.000000	0.000000	0.000000	0.000000	0.000000	0.000000	0.000000	0.000000	0.000000	0.000000	0.000000	0.000000	0.000000	0.000000	0.000000	0.000000	0.000000	0.000000	0.000000	0.000000	7.356591	543.131217	-114.127904	0.169190	0.000000	-0.903887	0.000000	5.216095	0.000000	7.420434	514.573813	111.630380	0.206865	0.000000	-1.576028	0.000000	-4.489542	-0.000000
1.731500	0.000000	0.000000	0.000000	0.000000	0.000000	0.000000	0.000000	0.000000	0.000000	0.000000	0.000000	0.000000	0.000000	0.000000	0.000000	0.000000	0.000000	0.000000	0.000000	0.000000	0.000000	0.000000	0.000000	0.000000	0.000000	0.000000	0.000000	7.272070	542.735176	-114.103200	0.169190	0.000000	-0.903891	0.000000	5.209261	0.000000	7.334081	514.060545	111.584098	0.206847	0.000000	-1.576002	0.000000	-4.485137	-0.000000
1.732000	0.000000	0.000000	0.000000	0.000000	0.000000	0.000000	0.000000	0.000000	0.000000	0.000000	0.000000	0.000000	0.000000	0.000000	0.000000	0.000000	0.000000	0.000000	0.000000	0.000000	0.000000	0.000000	0.000000	0.000000	0.000000	0.000000	0.000000	7.189526	542.340059	-114.077518	0.169189	0.000000	-0.903896	0.000000	5.202503	0.000000	7.245160	513.547206	111.538992	0.206830	0.000000	-1.575976	0.000000	-4.480658	-0.000000
1.732500	0.000000	0.000000	0.000000	0.000000	0.000000	0.000000	0.000000	0.000000	0.000000	0.000000	0.000000	0.000000	0.000000	0.000000	0.000000	0.000000	0.000000	0.000000	0.000000	0.000000	0.000000	0.000000	0.000000	0.000000	0.000000	0.000000	0.000000	7.108961	541.945785	-114.050854	0.169187	0.000000	-0.903901	0.000000	5.195819	0.000000	7.153727	513.033718	111.494987	0.206814	0.000000	-1.575950	0.000000	-4.476101	-0.000000
1.733000	0.000000	0.000000	0.000000	0.000000	0.000000	0.000000	0.000000	0.000000	0.000000	0.000000	0.000000	0.000000	0.000000	0.000000	0.000000	0.000000	0.000000	0.000000	0.000000	0.000000	0.000000	0.000000	0.000000	0.000000	0.000000	0.000000	0.000000	7.030371	541.552268	-114.023205	0.169184	0.000000	-0.903906	0.000000	5.189207	0.000000	7.059851	512.519999	111.452010	0.206799	0.000000	-1.575924	0.000000	-4.471463	-0.000000
1.733500	0.000000	0.000000	0.000000	0.000000	0.000000	0.000000	0.000000	0.000000	0.000000	0.000000	0.000000	0.000000	0.000000	0.000000	0.000000	0.000000	0.000000	0.000000	0.000000	0.000000	0.000000	0.000000	0.000000	0.000000	0.000000	0.000000	0.000000	6.953749	541.159415	-113.994571	0.169180	0.000000	-0.903911	0.000000	5.182669	0.000000	6.963607	512.005967	111.409980	0.206785	0.000000	-1.575898	0.000000	-4.466741	-0.000000
